# xmcd
#
# Track frame offsets: 
#        150
#        14504
#        28375
#        47747
#        66623
#        84610
#        105846
#        124045
#        145714
#        161951
#        172628
#        192383
#        219142
#        237016
#        261973
#        272451
#        299452
#        317192
#        335759
#
# Disc length: 4783 seconds
#
# Revision: 0
# Processed by: cddbd v1.5.2PL0 Copyright (c) Steve Scherf et al.
# Submitted via: ExactAudioCopy v0.99pb4
#
DISCID=1912ad13
DTITLE=Несчастный Случай - Grand Collection (сборник)
DYEAR=2008
DGENRE=Rock and Roll
TTITLE0=Радио
TTITLE1=На фиг, на фиг
TTITLE2=I Любовь You
TTITLE3=Песня из х/ф "Генералы песчаных карьеров"
TTITLE4=Сеньор Панталоне
TTITLE5=05 07 033
TTITLE6=Что ты имела
TTITLE7=Песня о Москве
TTITLE8=Цветок
TTITLE9=Аркадий
TTITLE10=Песня без названия
TTITLE11=Луна
TTITLE12=Уголочек неба
TTITLE13=Нет, ты понял?
TTITLE14=Овощное танго
TTITLE15=Простые радости земли
TTITLE16=Армагедон
TTITLE17=Сел и поехал
TTITLE18=Снег идет
EXTD=
EXTT0=
EXTT1=
EXTT2=
EXTT3=
EXTT4=
EXTT5=
EXTT6=
EXTT7=
EXTT8=
EXTT9=
EXTT10=
EXTT11=
EXTT12=
EXTT13=
EXTT14=
EXTT15=
EXTT16=
EXTT17=
EXTT18=
PLAYORDER=
